<svg width="55" height="63" viewBox="0 0 55 63" fill="none" xmlns="http://www.w3.org/2000/svg">
<path d="M32.3212 6.96122C32.2513 6.92671 25.3322 3.68014 19.8265 3.2661C14.0398 2.82085 8.2415 5.85547 8.18164 5.88833L7.39844 4.43756C7.65119 4.30448 13.684 1.1647 19.9529 1.62638C25.7712 2.06671 32.7435 5.34121 33.0378 5.47923L32.3212 6.96122Z" fill="#140A0B"/>
<path d="M26.4705 10.1932L25.7422 8.71614L31.4457 5.96903L27.7609 0.966087L29.1061 0L33.9566 6.58516L26.4705 10.1932Z" fill="#140A0B"/>
<path d="M1.63856 14.4943L0.921875 13.0124C1.2162 12.8743 8.1885 9.59983 14.0085 9.15951C20.2574 8.70932 26.3085 11.8376 26.5613 11.9707L25.7781 13.4215C25.7199 13.3902 19.9032 10.354 14.1348 10.7992C8.62916 11.2133 1.7084 14.4615 1.63856 14.4943Z" fill="#140A0B"/>
<path d="M7.48779 17.7264L0 14.1184L4.85052 7.5332L6.19576 8.49929L2.5109 13.5022L8.21445 16.2493L7.48779 17.7264Z" fill="#140A0B"/>
<path d="M38.745 62.9993C36.6282 62.9993 34.4815 62.7725 32.5393 62.3454C29.2252 61.6159 22.2529 56.3599 20.778 54.85C19.4444 53.4846 15.8726 48.2435 15.3488 43.9799C15.1193 42.1233 16.561 36.5913 18.3253 34.623C18.6728 34.2368 19.037 33.9773 19.4095 33.8491C19.3345 33.68 19.2586 33.5113 19.1817 33.3431C18.0343 30.8753 16.3349 28.0246 14.835 25.5076C12.2958 21.2456 11.3497 19.5435 11.5093 18.5741C11.777 16.9311 13.1405 15.0351 14.9564 14.7032L15.2773 14.6391C15.7454 14.5276 16.2243 14.4659 16.7057 14.4551C18.2904 14.4551 19.742 15.3489 21.2768 17.2663C22.6055 18.9273 24.7572 23.513 26.568 27.6615C26.4849 26.6166 26.5165 25.7442 26.7393 25.2348C27.6372 23.1761 30.1415 22.3661 30.9047 22.3185L31.0926 22.3136C31.5765 22.3136 34.0525 22.4335 35.1998 24.8126C35.3828 25.1938 35.5574 25.6045 35.7186 26.0202C35.9248 25.3137 36.2175 24.6976 36.6349 24.346C37.9186 23.2682 39.6762 22.7095 40.8718 23.0414C42.1572 23.398 43.2397 24.7419 43.6305 26.472C43.7984 26.0974 44.0013 25.7934 44.2407 25.616C45.4031 24.7551 47.4251 24.6631 48.7055 25.5404C50.2685 26.6117 53.8636 33.0292 54.4955 38.6417C55.0126 43.2553 55.5963 51.4999 53.6691 54.8976C51.667 58.4219 47.5714 61.1591 44.6132 62.209C43.1732 62.7167 41.0896 62.9993 38.745 62.9993ZM20.0048 35.4297C18.9006 35.5381 16.7373 41.6501 16.9983 43.7778C17.4673 47.6027 20.7913 52.4956 21.9752 53.7081C23.3837 55.1507 30.0517 60.1125 32.8985 60.7385C34.7259 61.141 36.7446 61.3546 38.7434 61.3546C40.8701 61.3546 42.8024 61.1 44.0462 60.6564C46.2827 59.8628 50.3001 57.4591 52.2141 54.086C53.4579 51.8991 53.6857 46.3326 52.8393 38.8192C52.239 33.4663 48.7354 27.558 47.756 26.8844C46.9695 26.3471 45.6591 26.61 45.2351 26.9255C45.0006 27.19 44.6531 28.7377 44.5184 30.2115L44.101 34.7577L42.8888 30.3528C42.8888 30.3528 42.3501 28.3976 42.0109 26.8483C41.7215 25.5388 40.9832 24.7731 40.4195 24.6187C39.7993 24.4445 38.5538 24.8832 37.7107 25.593C37.2518 25.9791 36.9109 28.2103 36.8959 29.9683L36.8328 36.7983L35.2547 30.1474C35.2481 30.1178 34.5879 27.3494 33.6983 25.5141C32.9799 24.0256 31.4002 23.95 31.0926 23.95C30.6087 23.9829 28.8378 24.5711 28.2658 25.8805C27.8667 26.799 28.7713 31.5916 29.8372 35.5036L28.2608 36.0162C28.2059 35.8733 22.4109 21.3245 19.9748 18.28C18.4084 16.3215 17.3608 16.0948 16.709 16.0948C16.3432 16.0948 15.9907 16.1671 15.6198 16.2443L15.2623 16.315C14.3278 16.4858 13.3451 17.6639 13.1505 18.8353C13.1655 19.463 14.8865 22.3514 16.27 24.6729C17.7882 27.2229 19.5109 30.1129 20.6932 32.6546C20.9942 33.3003 21.2735 33.9723 21.5313 34.6591L21.5346 34.6706C23.3388 37.1269 24.2367 45.2055 24.3348 46.1338L22.6836 46.3228C22.677 46.2653 21.9154 40.5115 20.0696 35.4905C20.0494 35.4688 20.0278 35.4485 20.0048 35.4297Z" fill="#140A0B"/>
</svg>
