<svg width="50" height="50" viewBox="0 0 50 50" fill="none" xmlns="http://www.w3.org/2000/svg">
<path d="M48.3839 17.6064L33.3949 15.3253L26.6944 1.10042C26.5114 0.710956 26.2103 0.395672 25.8384 0.20403C24.9057 -0.278168 23.7722 0.123663 23.3058 1.10042L16.6053 15.3253L1.61629 17.6064C1.20304 17.6682 0.825219 17.8722 0.535947 18.1814C0.186233 18.5578 -0.00647562 19.0641 0.00016616 19.5893C0.00680794 20.1144 0.212257 20.6152 0.571368 20.9818L11.4161 32.0538L8.854 47.6881C8.79392 48.0518 8.83235 48.4259 8.96494 48.7679C9.09753 49.1098 9.31897 49.4061 9.60415 49.623C9.88934 49.8399 10.2268 49.9687 10.5784 49.995C10.93 50.0212 11.2815 49.9438 11.5932 49.7715L25.0001 42.3902L38.407 49.7715C38.773 49.9755 39.1981 50.0435 39.6054 49.9693C40.6326 49.7838 41.3233 48.7638 41.1462 47.6881L38.5841 32.0538L49.4289 20.9818C49.724 20.6789 49.9189 20.2832 49.9779 19.8505C50.1373 18.7686 49.4171 17.7672 48.3839 17.6064Z" fill="#48242E"/>
</svg>
